<mxfile host="app.diagrams.net" agent="Mozilla/5.0 (Windows NT 10.0; Win64; x64) AppleWebKit/537.36 (KHTML, like Gecko) Chrome/133.0.0.0 Safari/537.36" version="26.0.16">
  <diagram name="Page-1" id="e7e014a7-5840-1c2e-5031-d8a46d1fe8dd">
    <mxGraphModel dx="355" dy="262" grid="1" gridSize="10" guides="1" tooltips="1" connect="1" arrows="1" fold="1" page="1" pageScale="1" pageWidth="1169" pageHeight="826" background="none" math="0" shadow="0">
      <root>
        <mxCell id="0" />
        <mxCell id="1" parent="0" />
        <mxCell id="2" value="" style="swimlane;whiteSpace=wrap;startSize=23;container=0;" parent="1" vertex="1">
          <mxGeometry x="70" y="104" width="550" height="722" as="geometry" />
        </mxCell>
        <mxCell id="DCLI6a6yuXCAleuS0Zk2-59" value="" style="endArrow=open;strokeColor=light-dark(#5a2c60, #ff9090);endFill=1;rounded=0;exitX=0.28;exitY=0.976;exitDx=0;exitDy=0;exitPerimeter=0;" edge="1" parent="2" source="10">
          <mxGeometry relative="1" as="geometry">
            <mxPoint x="130" y="376" as="sourcePoint" />
            <mxPoint x="130" y="416" as="targetPoint" />
          </mxGeometry>
        </mxCell>
        <mxCell id="DCLI6a6yuXCAleuS0Zk2-61" value="Vérification du rôle" style="container=0;" vertex="1" parent="2">
          <mxGeometry x="70" y="416" width="110" height="50" as="geometry" />
        </mxCell>
        <mxCell id="DCLI6a6yuXCAleuS0Zk2-62" value="" style="endArrow=open;strokeColor=light-dark(#5a2c60, #ff9090);endFill=1;rounded=0;exitX=0.465;exitY=1.005;exitDx=0;exitDy=0;exitPerimeter=0;" edge="1" parent="2" source="DCLI6a6yuXCAleuS0Zk2-58">
          <mxGeometry relative="1" as="geometry">
            <mxPoint x="310" y="427" as="sourcePoint" />
            <mxPoint x="310" y="442" as="targetPoint" />
          </mxGeometry>
        </mxCell>
        <mxCell id="DCLI6a6yuXCAleuS0Zk2-65" value="" style="rhombus;whiteSpace=wrap;html=1;container=0;" vertex="1" parent="2">
          <mxGeometry x="270" y="460" width="80" height="80" as="geometry" />
        </mxCell>
        <mxCell id="DCLI6a6yuXCAleuS0Zk2-66" value="&lt;font style=&quot;font-size: 9px;&quot;&gt;Client&amp;nbsp;&lt;/font&gt;&lt;div&gt;&lt;font style=&quot;font-size: 9px;&quot;&gt;ou&amp;nbsp;&lt;/font&gt;&lt;/div&gt;&lt;div&gt;&lt;font style=&quot;font-size: 9px;&quot;&gt;Prestataire ?&lt;/font&gt;&lt;/div&gt;" style="text;html=1;align=center;verticalAlign=middle;whiteSpace=wrap;rounded=0;" vertex="1" parent="2">
          <mxGeometry x="280" y="480" width="60" height="30" as="geometry" />
        </mxCell>
        <mxCell id="DCLI6a6yuXCAleuS0Zk2-54" value="inscrit ?" style="rhombus;whiteSpace=wrap;html=1;container=0;" vertex="1" parent="2">
          <mxGeometry x="175.5" y="220" width="80" height="80" as="geometry" />
        </mxCell>
        <mxCell id="10" value="S&#39;authentifier" style="container=0;" parent="2" vertex="1">
          <mxGeometry x="100" y="326" width="110" height="50" as="geometry" />
        </mxCell>
        <mxCell id="11" value="" style="endArrow=open;strokeColor=light-dark(#5a2c60, #ff9090);endFill=1;rounded=0;exitX=0;exitY=1;exitDx=0;exitDy=0;" parent="2" source="DCLI6a6yuXCAleuS0Zk2-54" target="10" edge="1">
          <mxGeometry relative="1" as="geometry">
            <mxPoint x="168.80952380952385" y="293.9999999999998" as="sourcePoint" />
          </mxGeometry>
        </mxCell>
        <mxCell id="DCLI6a6yuXCAleuS0Zk2-56" value="OUI" style="edgeLabel;html=1;align=center;verticalAlign=middle;resizable=0;points=[];container=0;" vertex="1" connectable="0" parent="11">
          <mxGeometry x="-0.0287" y="1" relative="1" as="geometry">
            <mxPoint y="-2" as="offset" />
          </mxGeometry>
        </mxCell>
        <mxCell id="DCLI6a6yuXCAleuS0Zk2-58" value="S&#39;inscrire" style="container=0;" vertex="1" parent="2">
          <mxGeometry x="240" y="326" width="110" height="50" as="geometry" />
        </mxCell>
        <mxCell id="DCLI6a6yuXCAleuS0Zk2-55" value="" style="endArrow=open;strokeColor=light-dark(#5a2c60, #ff9090);endFill=1;rounded=0;exitX=1;exitY=1;exitDx=0;exitDy=0;entryX=0.25;entryY=0;entryDx=0;entryDy=0;" edge="1" parent="2" source="DCLI6a6yuXCAleuS0Zk2-54" target="DCLI6a6yuXCAleuS0Zk2-58">
          <mxGeometry relative="1" as="geometry">
            <mxPoint x="267" y="326" as="sourcePoint" />
            <mxPoint x="305.5" y="376" as="targetPoint" />
          </mxGeometry>
        </mxCell>
        <mxCell id="DCLI6a6yuXCAleuS0Zk2-57" value="NON" style="edgeLabel;html=1;align=center;verticalAlign=middle;resizable=0;points=[];container=0;" vertex="1" connectable="0" parent="DCLI6a6yuXCAleuS0Zk2-55">
          <mxGeometry x="-0.0166" y="-2" relative="1" as="geometry">
            <mxPoint as="offset" />
          </mxGeometry>
        </mxCell>
        <mxCell id="DCLI6a6yuXCAleuS0Zk2-43" value="" style="swimlane;whiteSpace=wrap" vertex="1" parent="1">
          <mxGeometry x="670" y="128" width="445.5" height="722" as="geometry" />
        </mxCell>
        <mxCell id="DCLI6a6yuXCAleuS0Zk2-44" value="" style="ellipse;shape=startState;fillColor=#000000;strokeColor=light-dark(#70247a, #FF9090);" vertex="1" parent="DCLI6a6yuXCAleuS0Zk2-43">
          <mxGeometry x="100" y="40" width="30" height="30" as="geometry" />
        </mxCell>
        <mxCell id="DCLI6a6yuXCAleuS0Zk2-45" value="" style="edgeStyle=elbowEdgeStyle;elbow=horizontal;verticalAlign=bottom;endArrow=open;endSize=8;strokeColor=light-dark(#5a2c60, #ff9090);endFill=1;rounded=0" edge="1" parent="DCLI6a6yuXCAleuS0Zk2-43" source="DCLI6a6yuXCAleuS0Zk2-44" target="DCLI6a6yuXCAleuS0Zk2-46">
          <mxGeometry x="100" y="40" as="geometry">
            <mxPoint x="115" y="110" as="targetPoint" />
          </mxGeometry>
        </mxCell>
        <mxCell id="DCLI6a6yuXCAleuS0Zk2-46" value="Authentification Admin" style="" vertex="1" parent="DCLI6a6yuXCAleuS0Zk2-43">
          <mxGeometry x="60" y="110" width="200" height="50" as="geometry" />
        </mxCell>
        <mxCell id="DCLI6a6yuXCAleuS0Zk2-47" value="Gère les utilisateurs" style="" vertex="1" parent="DCLI6a6yuXCAleuS0Zk2-43">
          <mxGeometry x="60" y="220" width="130" height="50" as="geometry" />
        </mxCell>
        <mxCell id="DCLI6a6yuXCAleuS0Zk2-48" value="" style="endArrow=open;strokeColor=light-dark(#5a2c60, #ff9090);endFill=1;rounded=0;exitX=0.293;exitY=1.004;exitDx=0;exitDy=0;exitPerimeter=0;entryX=0.436;entryY=-0.038;entryDx=0;entryDy=0;entryPerimeter=0;" edge="1" parent="DCLI6a6yuXCAleuS0Zk2-43" source="DCLI6a6yuXCAleuS0Zk2-46" target="DCLI6a6yuXCAleuS0Zk2-47">
          <mxGeometry relative="1" as="geometry" />
        </mxCell>
        <mxCell id="DCLI6a6yuXCAleuS0Zk2-49" value="Gère les avis" style="" vertex="1" parent="DCLI6a6yuXCAleuS0Zk2-43">
          <mxGeometry x="60" y="325" width="110" height="50" as="geometry" />
        </mxCell>
        <mxCell id="DCLI6a6yuXCAleuS0Zk2-50" value="" style="endArrow=open;strokeColor=light-dark(#5a2c60, #ff9090);endFill=1;rounded=0" edge="1" parent="DCLI6a6yuXCAleuS0Zk2-43" source="DCLI6a6yuXCAleuS0Zk2-47" target="DCLI6a6yuXCAleuS0Zk2-49">
          <mxGeometry relative="1" as="geometry" />
        </mxCell>
        <mxCell id="DCLI6a6yuXCAleuS0Zk2-51" value="" style="ellipse;html=1;shape=endState;fillColor=#000000;strokeColor=#ff0000;" vertex="1" parent="DCLI6a6yuXCAleuS0Zk2-43">
          <mxGeometry x="90" y="442" width="30" height="30" as="geometry" />
        </mxCell>
        <mxCell id="DCLI6a6yuXCAleuS0Zk2-52" value="" style="endArrow=open;strokeColor=light-dark(#5a2c60, #ff9090);endFill=1;rounded=0;exitX=0.437;exitY=1.027;exitDx=0;exitDy=0;exitPerimeter=0;entryX=0.5;entryY=0;entryDx=0;entryDy=0;" edge="1" parent="DCLI6a6yuXCAleuS0Zk2-43" source="DCLI6a6yuXCAleuS0Zk2-49" target="DCLI6a6yuXCAleuS0Zk2-51">
          <mxGeometry relative="1" as="geometry">
            <mxPoint x="118" y="462" as="sourcePoint" />
            <mxPoint x="112" y="517" as="targetPoint" />
          </mxGeometry>
        </mxCell>
        <mxCell id="5" value="" style="ellipse;shape=startState;fillColor=#000000;strokeColor=light-dark(#70247a, #FF9090);container=0;" parent="1" vertex="1">
          <mxGeometry x="275" y="170" width="30" height="30" as="geometry" />
        </mxCell>
        <mxCell id="6" value="" style="edgeStyle=elbowEdgeStyle;elbow=horizontal;verticalAlign=bottom;endArrow=open;endSize=8;strokeColor=light-dark(#5a2c60, #ff9090);endFill=1;rounded=0" parent="1" source="5" target="7" edge="1">
          <mxGeometry x="220" y="168" as="geometry">
            <mxPoint x="235" y="238" as="targetPoint" />
          </mxGeometry>
        </mxCell>
        <mxCell id="7" value="Affichage de la page d&#39;acceuil" style="container=0;" parent="1" vertex="1">
          <mxGeometry x="195.5" y="238" width="200" height="50" as="geometry" />
        </mxCell>
        <mxCell id="9" value="" style="endArrow=open;strokeColor=light-dark(#5a2c60, #ff9090);endFill=1;rounded=0;exitX=0.468;exitY=1.02;exitDx=0;exitDy=0;exitPerimeter=0;entryX=0.5;entryY=0;entryDx=0;entryDy=0;" parent="1" source="7" target="DCLI6a6yuXCAleuS0Zk2-54" edge="1">
          <mxGeometry relative="1" as="geometry">
            <mxPoint x="289" y="320" as="targetPoint" />
          </mxGeometry>
        </mxCell>
        <mxCell id="DCLI6a6yuXCAleuS0Zk2-41" value="" style="ellipse;html=1;shape=endState;fillColor=#000000;strokeColor=#ff0000;container=0;" vertex="1" parent="1">
          <mxGeometry x="220" y="760" width="30" height="30" as="geometry" />
        </mxCell>
      </root>
    </mxGraphModel>
  </diagram>
</mxfile>
